<?xml version="1.0" encoding="iso-8859-1"?>
<!-- Generator: Adobe Illustrator 18.1.1, SVG Export Plug-In . SVG Version: 6.00 Build 0)  -->
<svg version="1.1" id="Capa_1" xmlns="http://www.w3.org/2000/svg" xmlns:xlink="http://www.w3.org/1999/xlink" x="0px" y="0px"
	 viewBox="0 0 525.153 525.153" style="enable-background:new 0 0 525.153 525.153;" xml:space="preserve">
<g>
	<path d="M445.537,84.725l-33.916,33.916C374.642,89.254,328.1,71.596,277.467,71.596c-43.675,0-84.243,13.129-118.159,35.338
		l34.879,34.857c24.332-14.092,52.997-22.45,83.302-22.45c92.383,0,167.108,74.725,167.108,167.108
		c0,30.306-8.359,58.97-22.428,83.324l34.594,34.594c22.45-33.654,35.579-74.243,35.579-117.919
		c0-50.612-17.68-97.153-47.023-133.914l33.916-33.894L445.537,84.725z M349.084,0H205.871v47.745h143.213V0z M253.616,201.484
		l47.745,47.745v-82.121h-47.745V201.484z M63.117,71.596l-30.306,30.349l65.644,65.863c-22.669,33.916-35.82,74.747-35.82,118.641
		c0,118.663,95.972,214.831,214.831,214.831c43.916,0,84.746-13.129,118.903-35.82l59.692,59.692l30.306-30.306L302.324,310.781
		L63.117,71.596z M277.488,453.557c-92.383,0-167.086-74.725-167.086-167.108c0-30.546,8.337-59.211,22.669-84.024l228.201,228.201
		C336.699,445.198,308.013,453.557,277.488,453.557z"/>
</g>
<g>
</g>
<g>
</g>
<g>
</g>
<g>
</g>
<g>
</g>
<g>
</g>
<g>
</g>
<g>
</g>
<g>
</g>
<g>
</g>
<g>
</g>
<g>
</g>
<g>
</g>
<g>
</g>
<g>
</g>
</svg>
