<?xml version="1.0" encoding="iso-8859-1"?>
<!-- Generator: Adobe Illustrator 18.1.1, SVG Export Plug-In . SVG Version: 6.00 Build 0)  -->
<svg version="1.1" id="Capa_1" xmlns="http://www.w3.org/2000/svg" xmlns:xlink="http://www.w3.org/1999/xlink" x="0px" y="0px"
	 viewBox="0 0 96 96" style="enable-background:new 0 0 96 96;" xml:space="preserve">
<g>
	<path style="fill:#030104;" d="M11.815,65.812c-7.569,7.44-1.176,15.079-11.235,26.403c-4.54,5.113,18.69,3.554,30.199-7.76
		c4.882-4.798,3.505-11.793-1.731-16.941C23.812,62.366,16.696,61.014,11.815,65.812z M95.701,1.293
		C91.815-2.524,48.806,31.94,36.002,44.528c-6.354,6.246-8.476,9.595-10.424,12.1c-0.847,1.087,0.272,1.424,0.776,1.681
		c2.517,1.281,4.277,2.475,6.553,4.712c2.277,2.237,3.492,3.968,4.795,6.441c0.261,0.496,0.604,1.597,1.708,0.766
		c2.55-1.915,5.955-4.001,12.309-10.248C64.524,47.392,99.583,5.111,95.701,1.293z"/>
</g>
<g>
</g>
<g>
</g>
<g>
</g>
<g>
</g>
<g>
</g>
<g>
</g>
<g>
</g>
<g>
</g>
<g>
</g>
<g>
</g>
<g>
</g>
<g>
</g>
<g>
</g>
<g>
</g>
<g>
</g>
</svg>
