<?xml version="1.0" encoding="iso-8859-1"?>
<!-- Generator: Adobe Illustrator 16.0.0, SVG Export Plug-In . SVG Version: 6.00 Build 0)  -->
<!DOCTYPE svg PUBLIC "-//W3C//DTD SVG 1.1//EN" "http://www.w3.org/Graphics/SVG/1.1/DTD/svg11.dtd">
<svg version="1.1" id="Capa_1" xmlns="http://www.w3.org/2000/svg" xmlns:xlink="http://www.w3.org/1999/xlink" x="0px" y="0px"
	 width="612.015px" height="612.015px" viewBox="0 0 612.015 612.015" style="enable-background:new 0 0 612.015 612.015;"
	 xml:space="preserve">
<g>
	<g id="_x31__2_">
		<g>
			<path d="M246.969,319.343l-60.227,59.385c-40.24-0.898-95.934,13.35-119.975,92.09C48.388,512.492,0,510.389,0,510.389
				c100.467,111.464,218.874,48.292,245.917,20.904c23.754-24.079,27.177-53.514,24.634-77.058l56.038-55.254L246.969,319.343z
				 M219.198,504.919c-18.819,17.461-102.934,56.382-152.431,18.647c0,0,17.232-13.445,30.276-40.432
				c31.155-82.757,108.805-70.517,108.805-70.517l26.7,26.374C232.816,439.241,252.496,474.05,219.198,504.919z M595.418,54.357
				c-22.128-21.841-58.008-21.841-80.117,0L274.185,292.472l79.62,79.619l241.613-238.63
				C617.547,111.62,617.547,76.199,595.418,54.357z"/>
		</g>
	</g>
</g>
<g>
</g>
<g>
</g>
<g>
</g>
<g>
</g>
<g>
</g>
<g>
</g>
<g>
</g>
<g>
</g>
<g>
</g>
<g>
</g>
<g>
</g>
<g>
</g>
<g>
</g>
<g>
</g>
<g>
</g>
</svg>
