<?xml version="1.0" encoding="iso-8859-1"?>
<!-- Generator: Adobe Illustrator 19.1.0, SVG Export Plug-In . SVG Version: 6.00 Build 0)  -->
<svg version="1.1" id="Capa_1" xmlns="http://www.w3.org/2000/svg" xmlns:xlink="http://www.w3.org/1999/xlink" x="0px" y="0px"
	 viewBox="0 0 67.276 67.276" style="enable-background:new 0 0 67.276 67.276;" xml:space="preserve">
<g>
	<g>
		<path d="M1.938,65.422c0.94,0.081,1.841,0.118,2.704,0.118c11.978,0,16.645-7.363,17.617-12.1c2.43-1.535,4.853-3.301,7.244-5.231
			c0.223-0.118,0.421-0.271,0.586-0.467C49.221,32.057,66.145,6.175,66.953,4.93c0.518-0.798,0.402-1.85-0.276-2.517L66.57,2.308
			c-0.668-0.656-1.704-0.761-2.49-0.25c-1.244,0.808-27.082,17.703-42.771,36.813c-0.24,0.19-0.43,0.431-0.56,0.701
			c-1.841,2.285-3.528,4.598-5.009,6.917c-2.627-0.15-5.244,0.692-7.48,2.438c-2.805,2.189-4.688,5.588-4.918,8.867
			c-0.205,2.924-1.378,3.562-1.631,3.668C0.695,61.553,0.011,62.39,0,63.419C-0.011,64.468,0.895,65.333,1.938,65.422z
			 M57.356,11.656c-6.56,8.931-17.528,22.719-29.183,32.467c-0.972-0.51-2.438-1.521-3.306-3.256
			C34.619,29.202,48.418,18.221,57.356,11.656z M22.228,44.196c0.805,1.096,1.734,1.94,2.616,2.567
			c-1.548,1.172-3.102,2.279-4.653,3.262c-0.227-0.004-0.416-0.02-0.565-0.039c-0.082-0.139-0.182-0.268-0.299-0.385
			c-0.104-0.129-0.213-0.5-0.273-0.887C20.012,47.207,21.09,45.699,22.228,44.196z M7.331,58.075c0.15-2.15,1.48-4.504,3.39-5.994
			c1.036-0.809,2.635-1.684,4.645-1.609c0.109,0.34,0.25,0.688,0.434,1.02c0.039,0.462,0.238,0.906,0.578,1.246
			c0.429,0.43,0.974,0.752,1.63,0.967c-0.897,2.49-3.596,7.096-11.399,7.758C6.974,60.535,7.238,59.417,7.331,58.075z"/>
	</g>
</g>
<g>
</g>
<g>
</g>
<g>
</g>
<g>
</g>
<g>
</g>
<g>
</g>
<g>
</g>
<g>
</g>
<g>
</g>
<g>
</g>
<g>
</g>
<g>
</g>
<g>
</g>
<g>
</g>
<g>
</g>
</svg>
