<?xml version="1.0" encoding="iso-8859-1"?>
<!-- Generator: Adobe Illustrator 19.1.0, SVG Export Plug-In . SVG Version: 6.00 Build 0)  -->
<svg version="1.1" id="Capa_1" xmlns="http://www.w3.org/2000/svg" xmlns:xlink="http://www.w3.org/1999/xlink" x="0px" y="0px"
	 viewBox="0 0 64.533 64.533" style="enable-background:new 0 0 64.533 64.533;" xml:space="preserve">
<g>
	<g>
		<path d="M21.476,33.734l-3.813,3.813c-0.997,0.285-4.52,1.424-8.08,4.094C3.09,46.51,0.312,62.592,0.197,63.275L0,64.441h1.183
			c16.555,0,24.948-15.679,25.823-17.41l3.948-3.953L64.533,2.377l-2.286-2.286L21.476,33.734z M22.18,35.852l6.589,6.589
			l-2.586,2.586l-6.586-6.587L22.18,35.852z M2.397,62.41c0.767-3.791,3.48-15.49,8.386-19.169c2.956-2.217,5.936-3.301,7.113-3.673
			l7.062,7.062C23.389,49.518,15.977,61.715,2.397,62.41z M30.115,40.959l-6.447-6.446l36.823-30.38L30.115,40.959z"/>
	</g>
</g>
<g>
</g>
<g>
</g>
<g>
</g>
<g>
</g>
<g>
</g>
<g>
</g>
<g>
</g>
<g>
</g>
<g>
</g>
<g>
</g>
<g>
</g>
<g>
</g>
<g>
</g>
<g>
</g>
<g>
</g>
</svg>
