<?xml version="1.0" encoding="iso-8859-1"?>
<!-- Generator: Adobe Illustrator 18.0.0, SVG Export Plug-In . SVG Version: 6.00 Build 0)  -->
<!DOCTYPE svg PUBLIC "-//W3C//DTD SVG 1.1//EN" "http://www.w3.org/Graphics/SVG/1.1/DTD/svg11.dtd">
<svg version="1.1" id="Capa_1" xmlns="http://www.w3.org/2000/svg" xmlns:xlink="http://www.w3.org/1999/xlink" x="0px" y="0px"
	 viewBox="0 0 375.608 375.608" style="enable-background:new 0 0 375.608 375.608;" xml:space="preserve">
<g>
	<path d="M135.568,161.72H30.93C13.875,161.72,0,175.595,0,192.649v104.639c0,17.055,13.875,30.93,30.93,30.93h104.639
		c17.055,0,30.93-13.875,30.93-30.93V192.649C166.498,175.595,152.623,161.72,135.568,161.72z M151.498,297.288
		c0,8.784-7.146,15.93-15.93,15.93H30.93c-8.783,0-15.93-7.146-15.93-15.93V192.649c0-8.784,7.146-15.93,15.93-15.93h104.639
		c8.783,0,15.93,7.146,15.93,15.93V297.288z"/>
	<path d="M372.952,161.446l-42.43-95.651c-3.35-7.552-9.44-13.348-17.149-16.319c-7.71-2.971-16.114-2.762-23.665,0.587
		l-95.65,42.43c-7.553,3.35-13.348,9.44-16.319,17.149c-2.971,7.709-2.763,16.113,0.588,23.665l42.43,95.651
		c3.35,7.552,9.44,13.347,17.149,16.318c3.612,1.392,7.376,2.086,11.134,2.086c4.263,0,8.519-0.893,12.531-2.673l95.65-42.43v0
		C372.811,195.344,379.868,177.035,372.952,161.446z M359.543,179.716c-1.53,3.971-4.515,7.107-8.404,8.833v0l-95.65,42.43
		c-3.891,1.726-8.219,1.832-12.188,0.303c-3.971-1.53-7.107-4.515-8.833-8.404l-42.43-95.651c-1.726-3.889-1.833-8.218-0.303-12.188
		s4.516-7.107,8.405-8.832l95.65-42.43c2.067-0.917,4.259-1.377,6.454-1.377c1.936,0,3.874,0.357,5.734,1.075
		c3.971,1.53,7.107,4.515,8.833,8.404l42.43,95.651C360.966,171.417,361.073,175.745,359.543,179.716z"/>
	<path d="M280.917,138.883c-3.65-2.269-8.473-1.908-11.746,0.873c-3.137,2.667-4.339,7.106-2.946,10.987
		c1.409,3.925,5.237,6.636,9.415,6.636c4.717,0,8.871-3.437,9.8-8.05C286.252,145.299,284.407,141.052,280.917,138.883z"/>
	<path d="M44.57,215.159c4.721,0,8.874-3.438,9.81-8.05c0.82-4.04-1.043-8.27-4.533-10.446c-3.597-2.243-8.344-1.916-11.617,0.767
		c-3.182,2.609-4.446,7.046-3.119,10.939C36.474,212.37,40.331,215.159,44.57,215.159z"/>
	<path d="M44.57,254.968c4.723,0,8.872-3.432,9.81-8.05c0.82-4.039-1.041-8.267-4.533-10.436c-3.602-2.238-8.332-1.916-11.617,0.758
		c-3.188,2.596-4.442,7.056-3.119,10.938C36.476,252.187,40.328,254.968,44.57,254.968z"/>
	<path d="M49.847,276.292c-3.602-2.237-8.332-1.916-11.617,0.759c-3.194,2.601-4.436,7.054-3.119,10.942
		c1.358,4.011,5.223,6.786,9.459,6.786c4.719,0,8.87-3.423,9.81-8.04C55.202,282.698,53.341,278.462,49.847,276.292z"/>
	<path d="M121.92,215.159c4.689,0,8.827-3.395,9.787-7.971c0.85-4.052-0.98-8.347-4.509-10.524
		c-3.701-2.282-8.599-1.896-11.871,0.979c-3.051,2.681-4.189,7.083-2.809,10.902C113.932,212.458,117.749,215.159,121.92,215.159z"
		/>
	<path d="M127.198,236.483c-3.698-2.291-8.594-1.899-11.871,0.97c-3.016,2.64-4.146,6.942-2.866,10.729
		c1.353,4.004,5.23,6.786,9.459,6.786c4.773,0,8.981-3.523,9.84-8.21C132.49,242.773,130.638,238.614,127.198,236.483z"/>
	<path d="M127.198,276.292c-3.651-2.259-8.465-1.913-11.746,0.864c-3.147,2.664-4.315,7.118-2.936,10.99
		c1.401,3.936,5.228,6.631,9.405,6.631c4.704,0,8.888-3.421,9.811-8.04C132.537,282.699,130.7,278.459,127.198,276.292z"/>
</g>
<g>
</g>
<g>
</g>
<g>
</g>
<g>
</g>
<g>
</g>
<g>
</g>
<g>
</g>
<g>
</g>
<g>
</g>
<g>
</g>
<g>
</g>
<g>
</g>
<g>
</g>
<g>
</g>
<g>
</g>
</svg>
